<?xml version="1.0" encoding="UTF-8"?>
<svg id="Layer_2" data-name="Layer 2" xmlns="http://www.w3.org/2000/svg" viewBox="0 0 276 276">
  <defs>
    <style>
      .cls-1 {
        stroke: #fff;
        stroke-miterlimit: 10;
        stroke-width: .75px;
      }

      .cls-1, .cls-2 {
        fill: #fff;
      }

      .cls-3 {
        fill: #000;
      }

      .cls-3, .cls-2 {
        stroke-width: 0px;
      }
    </style>
  </defs>
  <g id="Layer_1-2" data-name="Layer 1">
    <g>
      <circle class="cls-3" cx="138" cy="138" r="138"/>
      <g>
        <path class="cls-1" d="M44.68,239.48c1.79,1.75,3.64,3.44,5.52,5.09.54-.89.92-2.62.87-3.11-.12-1.27-.57-1.52-.35-2.3.1-.34.21-.4.43-.7.08-.1.14-.21.27-.42.76-1.29,2.99-5.91,2.99-5.91,1.04-2.16.97-1.9,1.25-2.57.25-.58.53-1.29,1.04-2.23.35-.63.49-.82.7-.97.72-.56,1.7-.41,2.16-.35.63.08,2.18-.04,5.29-.28,2.44-.19,4.19-.6,4.59-.7.81-.2,2.07-.54,3.55-1.11,1.27-.49,1.36-.64,3.96-1.81,1.28-.58,1.28-.55,2.85-1.25,1.71-.76,2.56-1.14,3.34-1.53,2.79-1.39,2.59-1.7,4.8-2.71,1.7-.78,1.7-.54,3.9-1.53,1.34-.61,1.79-.9,2.85-1.18.48-.13,1.6-.39,3.06-.35,1.34.03,2.35.3,3.27.56,1.48.4,1.44.59,2.57.83,1.23.26,1.57.1,3.06.28,1.27.15,1.47.32,2.99.63,1.51.3,2.58.39,4.66.56,2.2.18,3.87.2,4.52.21,2.42.02,3.64.03,4.8-.28.86-.23,2.47-.68,3.83-2.09.48-.5,1.11-1.17,1.32-2.23.24-1.16-.16-2.11-.42-2.71-.65-1.55-1.82-2.49-2.36-2.92-.44-.35-.61-.42-1.39-1.04-.3-.24-.86-.7-1.53-1.32-1.54-1.43-1.49-1.71-2.64-2.64-.63-.51-.78-.54-1.32-1.04-.19-.17-.41-.4-1.39-1.6-1.07-1.31-1.28-1.63-1.46-2.09-.19-.49-.35-.92-.21-1.39.24-.79,1.14-1.12,1.32-1.18.96-.35,1.71,0,2.92.28,1.58.37,1.37.05,3.96.42.52.07,2.28.34,4.38.9,2.99.81,2.74,1.17,5.22,1.81,2.36.6,2.6.28,5.63,1.04,2.26.57,3.13.83,3.13.83,1.32.41,1.54.54,2.23.63,1.08.14,1.38-.1,3.06-.21,1.28-.09,1.11.05,3.13,0,1.53-.04,2.32-.06,3.34-.28,1.25-.27,1.26-.48,2.23-.7,1.65-.36,2.15.15,4.59.28,1.64.09,2.84-.07,4.45-.28,1.99-.26,2.84-.55,3.48-.83.89-.4,1.41-.79,1.88-1.11,3.32-2.25,5.41-1.22,6.68-2.92,1.14-1.54.67-4.04-.21-5.49-.61-1.01-1.56-1.6-3.48-2.78-1.09-.67-2.03-1.12-3.62-1.88-1.18-.56-2.09-.95-2.78-1.25-2.04-.88-3.88-1.58-4.1-1.67-1.6-.61-1.93-.69-2.78-1.11-.97-.47-1.02-.61-2.3-1.32-1.76-.99-3.23-1.63-3.96-1.95-1.73-.74-1.53-.53-2.78-1.11-1.59-.75-2.04-1.17-3.2-1.39-1.08-.21-1.08.08-2.23-.07-1.72-.22-1.9-.9-4.31-1.81-1.91-.72-2.78-.66-2.99-1.32-.27-.84.81-1.86.97-2.02,1.2-1.14,2.8-1.21,3.96-1.25,2.45-.08,4.5.63,5.91,1.11,1.42.49,1.97.84,3.34,1.04,1.48.22,1.72-.05,2.99.07,1.91.17,2.37.88,5.56,2.16,1.51.61,2.67.95,3.9,1.32,2.7.81,3.4.8,5.63,1.6,1.4.5,2.46.98,3.06,1.25,2,.91,2.4,1.28,4.31,2.23,1.3.65,2.87,1.43,4.94,2.09,1.98.63,2.04.4,4.94,1.18,2.87.78,2.81,1.01,4.73,1.39,2.78.56,4.56.4,5.08.35.84-.09,1.96-.28,3.2-.77.88-.35,1.49-.59,2.09-1.18.79-.78,1.07-1.67,1.32-2.43.29-.89.35-1.59.42-2.36.15-1.77-.11-1.97,0-3.48.1-1.37.17-2.37.83-3.41.8-1.26,2-1.82,2.43-2.02.66-.3.99-.31,2.5-.56,0,0,2.55-.42,5.15-1.04.77-.18,1.47-.38,2.85-.77,2.94-.82,3.24-1,3.48-1.18,1.61-1.2,1.95-3.14,2.02-3.55.11-.62.32-1.81-.28-2.99-.35-.7-1.03-1.17-2.36-2.09-1.01-.69-2.22-1.51-4.03-2.23-.57-.23-1.29-.43-2.71-.83-1.76-.5-2.59-.69-4.73-1.25-2.46-.64-3.69-.96-4.59-1.25-2.63-.84-2.54-1.07-4.17-1.46-1.57-.38-1.64-.17-4.87-.63-1.73-.24-2.83-.4-4.24-.77-.79-.2-1.21-.35-3.9-1.32-2.09-.76-4.11-1.72-6.26-2.3-2.28-.62-3.41-.63-4.24-1.74-.64-.85-.74-1.86-.77-2.16-.03-.36-.15-1.72.63-2.71.57-.72,1.28-.82,3.06-1.25,3.3-.8,2.52-.85,5.36-1.46,2.13-.46,3.2-.69,4.52-.77,1.52-.08,1.74.09,4.8.21,1.45.06,2.45.06,4.45.07.67,0,2.85,0,5.91-.07,3.32-.08,2.97-.14,5.91-.21,2.37-.05,3.43-.03,5.84-.14,1.9-.09,2.86-.13,3.62-.28,1.55-.3,2.68-.78,4.94-1.74,1.29-.55,2.05-.87,3.06-1.46.61-.36,1.63-.96,2.78-1.95.85-.74.79-.83,2.57-2.71,1.77-1.86,1.95-1.89,2.23-2.5.7-1.57.3-3.15.14-3.76-.07-.29-.45-1.69-1.67-2.99-.42-.45-.83-.77-1.67-1.32-1.51-.99-2.37-1.39-4.73-2.64-2.42-1.28-2.73-1.51-3.9-2.02-.52-.22-.95-.39-1.74-.77-1.14-.54-1.23-.66-2.36-1.18-.79-.36-.97-.41-1.46-.7-.66-.38-.8-.57-1.32-.9-.95-.61-1.22-.46-2.23-.97-.58-.3-1.46-.84-2.23-1.74-.63-.73-1.23-1.43-1.11-2.23.08-.55.44-.72,1.74-1.88,1.76-1.57,1.59-1.68,2.57-2.36.52-.36,1.36-.94,2.57-1.32,1.48-.47,1.68-.08,2.71-.49.86-.34,1.57-1.22,3.06-2.92.5-.57,1.24-1.47,2.02-2.64.3-.46.65-1.05,1.32-2.23,1.28-2.22,1.36-2.46,1.88-3.2.91-1.29,1.05-1.08,1.74-2.09.78-1.13,1.11-2.21,1.74-4.31.66-2.19.98-3.31.7-4.24-.03-.11-.54-1.7-2.02-2.5-.54-.29-1.43-.41-3.2-.63-1.2-.15-1.8-.22-2.09-.21-1.82.08-2.04.87-4.24,1.18-.58.08-1.46.15-2.5-.07-.64-.14-1.11-.24-1.53-.63-.13-.12-.57-.56-.83-2.3-.1-.68-.11-1.11-.14-2.02-.1-3.1-.21-3.45-.35-3.76-.13-.3-.68-1.51-1.81-1.88-.9-.29-1.46.19-3.9,1.11-2.41.92-2.26.6-3.41,1.18-1.3.66-1.27.95-3.69,2.64-1.68,1.18-1.75,1.08-2.99,2.02-.41.31-.93.73-2.78,2.36-1.56,1.39-1.81,1.64-2.78,2.5-1.56,1.39-3.06,2.59-6.05,5.01-2.78,2.24-1.33,1-2.23,1.74-1.43,1.18-1.7,1.52-2.43,1.74-.32.1-1.75.48-2.85-.35-.76-.57-.98-1.43-1.11-1.95-.27-1.07-.03-1.65.07-2.99.13-1.8-.25-1.66-.21-3.62.04-1.58.29-1.83.56-4.38.04-.34.09-.9.21-2.85.22-3.72.34-5.58.35-7.93.01-2.74-.12-2.57-.07-5.22.04-2.08.13-2.55,0-3.76-.19-1.81-.64-3.12-1.11-4.52-.73-2.13-1.09-3.2-1.95-4.24-.49-.59-1.64-1.95-3.62-2.5-.63-.17-1.79-.5-3.06-.07-.73.25-.98.57-2.99,2.23-1.22,1.01-1.15.91-1.81,1.46-.76.64-1.92,1.67-4.31,4.24-2.19,2.35-3.28,3.53-4.38,5.01-.48.64-1.66,2.27-2.92,4.52-.72,1.28-1.44,2.59-2.16,4.45-.44,1.15-1,2.65-1.32,4.66-.35,2.17.03,2.17-.28,4.87-.28,2.4-.56,2.29-.9,5.15-.18,1.53-.17,2.16-.49,3.48-.27,1.13-.47,1.46-.97,2.92-.79,2.28-1.38,3.99-1.53,6.05-.15,1.99.3,1.8.14,3.62-.04.46-.15,1.45-1.81,5.63-1.61,4.07-1.33,2.72-2.3,5.29-.73,1.94-.95,2.9-1.95,3.41-.85.44-1.92.36-2.71,0-.86-.4-1.29-1.08-1.74-1.81-.57-.92-.79-1.76-.9-2.23-.57-2.41-.38-4.57-.35-4.94.08-.98.06-3.29,0-7.93-.04-3.36-.23-2.66-.49-8.35-.17-3.87-.13-5.36-.49-8.49-.33-2.9-.65-4.14-.97-5.15-.4-1.21-.69-1.7-1.88-4.45-1.49-3.45-1.19-3.03-1.81-4.31-1.28-2.67-2.62-4.54-4.45-7.09-1.1-1.54-.48-.55-2.5-3.2-1.29-1.69-1.61-2.18-2.36-2.43-1.47-.49-2.99.44-3.41.7-.57.35-1.19.87-2.09,2.23-.73,1.09-1.61,2.69-2.5,5.43-.89,2.73-.76,3.44-1.74,4.66-.32.4-1.11,1.35-2.43,1.81-.74.25-1.38.27-1.95.28-1.72.04-2.39-.46-3.27,0-.46.24-.71.61-.9.9-1.01,1.54-.7,3.45-.56,4.73.29,2.61-.26,1.48-.14,6.96.06,2.61.19,3.11.28,6.89.02.68.02,1.12.07,1.81.16,2.4.49,3.07.7,4.87.27,2.36-.19,2.18.07,5.15.1,1.19.21,2.32.63,3.76.45,1.54.8,1.87,1.25,3.2.46,1.38.34,1.79.7,4.59.22,1.72.57,4.38,1.39,7.44.5,1.86.61,1.74.83,2.92.48,2.48.32,4.54.21,5.77-.15,1.75-.47,3.14-.63,3.83-.32,1.4-.44,1.46-.63,2.36-.36,1.76-.09,2.47-.07,4.94.03,2.82-.32,2.36-.28,5.08.03,2.11.24,2.98-.28,4.38-.23.62-.63,1.66-1.67,2.23-.96.53-2.36.59-2.78,0-.23-.32,0-.6-.14-1.39-.11-.6-.31-.84-.7-1.6-.11-.21-.47-1.14-1.18-2.99-.45-1.17-.68-1.76-.7-1.81-.47-1.52-.34-2.07-.83-3.34-.26-.68-.46-.94-.77-1.53-.87-1.68-.89-2.7-1.39-4.59-.79-2.97-1.98-5.06-2.23-5.5-.53-.92-1.26-2.19-2.57-3.55-.79-.81-1.02-.87-1.6-1.6-.95-1.2-.93-1.81-1.81-3.48-.73-1.38-.81-1.09-2.16-3.27-.79-1.28-.86-1.54-1.95-3.34-1.44-2.38-1.9-2.88-2.57-2.99-.47-.08-.96.09-1.95.42-.45.15-1.08.37-1.81.83-.27.18-.9.6-1.53,1.32-.58.65-.85,1.19-1.25,1.95,0,0-.77,1.43-2.02,3.55-1.21,2.06-1.52,2.29-1.67,3.2-.11.65.03.64,0,2.23-.02,1.15-.1,1.44-.21,2.99-.1,1.4-.04,1.24-.14,3.2-.11,1.99-.17,2.26-.21,3.62-.01.55-.04,1.49,0,2.5.07,1.78.29,2.43.77,5.49.47,3.04.32,2.78.63,4.24.32,1.56.47,1.69,1.11,4.31.59,2.38.47,2.26.9,3.9.69,2.61.85,2.37,1.46,4.8.35,1.39.47,2.14.97,3.48.34.89.44.97.77,1.88.48,1.32.7,2.37.9,3.34.32,1.53.45,2.71.56,3.69.11.97.18,1.66.21,2.64.05,1.71-.11,1.92.07,2.92.23,1.27.57,1.36.49,2.16-.01.11-.17,1.44-1.25,2.16-.57.38-1.2.45-1.53.49-.21.02-.49.02-1.04,0-.9-.03-1.36-.04-1.74-.14-.57-.15-.98-.37-1.18-.49-.14-.08-.45-.27-1.18-.9-.36-.32-.72-.63-1.18-1.11-1.55-1.62-1.38-2.1-2.43-2.99-1.21-1.02-2.51-1.29-2.99-1.39-.62-.12-1.14-.23-1.81-.07-1.43.34-2.18,1.6-2.36,1.95-.15.28-.22.49-.56,2.64-.26,1.66-.39,2.5-.42,3.13-.03.5-.07,1.49.07,2.71.16,1.42.47,2.15.7,3.06.51,2.02-.02,2.26.07,6.4,0,.42.1,1.85.28,4.73.08,1.25.13,2.5.21,3.76.13,2.12.18,2.49.07,3.27-.15,1.08-.35,1.15-.7,2.85-.29,1.45-.16,1.46-.42,2.57-.28,1.2-.64,2.08-1.04,3.06-.58,1.42-.72,1.44-1.25,2.78-.14.36-.18.48-.9,2.64-.37,1.11-.73,2.23-1.11,3.34-.65,1.9-.78,2.12-.9,2.85-.17,1.02,0,1-.14,2.43-.08.89-.22,2.3-.83,3.93-.28.75-.58,1.31-.8,1.74-.37.71-.69,1.2-1.32,2.16-.95,1.45-1.86,2.72-2.3,3.55-.03.06-.13.25-.27.5-.25.42-.48.71-1.29,2.04-.96,1.58-.83,1.48-1.39,2.33-.66,1-.84,1.13-1.63,2.33-.59.89-.89,1.34-1.08,1.81-.11.26-.22.57-.35,1.35Z"/>
        <g>
          <path class="cls-2" d="M45.61,236.18c.05-.07.17-.26.09-.31l-1.37-.92c-.08-.05-.2.13-.25.2l-.09-.06.95-1.42.62.31-.05.07c-.44-.22-.58-.19-.85.22l-.16.25c-.05.07-.09.13,0,.18l.61.41.12-.18c.16-.25.16-.33-.09-.5l.05-.07.67.45-.05.07c-.25-.17-.33-.14-.49.1l-.12.18.67.45c.08.05.12,0,.17-.07l.18-.26c.31-.46.22-.62-.17-.98l.05-.07.58.54-.97,1.45-.09-.06Z"/>
          <path class="cls-2" d="M47.11,234.11c.12-.17-.04-.39-.19-.49l-1.18-.79c-.08-.05-.25.21-.3.28l-.09-.06c.1-.15.21-.29.3-.44.07-.1.13-.21.2-.31l.09.06c-.05.07-.13.19-.05.25l1.19.79c.25.17.24.52.09.75-.13.19-.4.32-.61.18-.08-.05-.1-.16-.05-.24.06-.08.16-.1.24-.05.08.06.1.16.05.24,0,0,0,.01,0,.01.12,0,.24-.08.31-.18Z"/>
          <path class="cls-2" d="M47.62,233.17c.07-.1.16-.27.03-.36l-1.3-.87c-.08-.05-.2.13-.25.2l-.09-.06.32-.47s.03-.03.05-.02l1.78.4-1.05-1.49s-.01-.04,0-.06l.32-.47.09.06c-.05.07-.17.26-.09.31l1.37.92c.08.05.2-.13.25-.2l.09.06c-.08.12-.17.24-.25.36s-.16.25-.24.37l-.09-.06c.05-.07.17-.26.09-.31l-1.46-.97,1.18,1.68s.01.04,0,.06c-.01.02-.03.03-.06.02l-1.98-.45,1.37.91c.13.09.25-.06.32-.16l.09.06c-.07.1-.14.19-.21.29-.07.1-.12.2-.19.3l-.09-.06Z"/>
        </g>
      </g>
    </g>
  </g>
</svg>